<svg xmlns="http://www.w3.org/2000/svg" xmlns:xlink="http://www.w3.org/1999/xlink" x="0px" y="0px" width="16px" height="64px" viewBox="0 0 16 64"><g  transform="translate(0, 0)"><path fill="currentColor" d="M15 2H1c-.55 0-1 .45-1 1v10c0 .55.45 1 1 1h14c.55 0 1-.45 1-1V3c0-.55-.45-1-1-1zM4.94 9.94l-3 3c-.12.12-.28.18-.44.18s-.32-.06-.44-.18a.628.628 0 0 1 0-.88l3-3c.24-.24.64-.24.88 0 .25.24.25.64 0 .88zm10 3c-.12.12-.28.18-.44.18s-.32-.06-.44-.18l-3-3a.628.628 0 0 1 0-.88c.24-.24.64-.24.88 0l3 3c.25.24.25.64 0 .88zm0-9L8.8 10.09c-.22.22-.51.33-.8.33s-.58-.11-.8-.33L1.06 3.94c-.24-.24-.24-.64 0-.88s.64-.24.88 0L8 9.12l6.06-6.06c.24-.24.64-.24.88 0 .25.24.25.64 0 .88z"/></g><g  transform="translate(0, 16)"><circle cx="8" cy="5" r="4"/>
    <path d="M8 10a6 6 0 0 0-6 5.47.5.5 0 0 0 .5.53h10.97a.5.5 0 0 0 .5-.53A6 6 0 0 0 8 10z"/></g><g  transform="translate(0, 32)">
<path fill="currentColor" d="M15 1H1c-.55 0-1 .45-1 1v12c0 .55.45 1 1 1h14c.55 0 1-.45 1-1V2c0-.55-.45-1-1-1zm-3.5 3c.83 0 1.5.67 1.5 1.5S12.33 7 11.5 7 10 6.33 10 5.5 10.67 4 11.5 4zm3.44 9.44c-.12.12-.28.18-.44.18s-.32-.06-.44-.18L12 11.38l-1.2 1.21c-.44.44-1.15.44-1.59 0L6 9.38l-4.06 4.06c-.24.24-.64.24-.88 0s-.24-.64 0-.88L5.2 8.41c.42-.42 1.17-.42 1.59 0l3.2 3.2 1.2-1.21c.43-.42 1.17-.42 1.59 0l2.15 2.15c.26.25.26.65.01.89z"/>
</g><g  transform="translate(0, 48)"><path fill="currentColor" d="M5.86 12.12C6.3 14.44 7.09 16 8 16c.91 0 1.7-1.56 2.14-3.88zm4.28-8.24C9.7 1.56 8.91 0 8 0c-.91 0-1.7 1.56-2.14 3.88zm5.32 7a8 8 0 0 0 0-5.76h-3.88A25.37 25.37 0 0 1 11.75 8a25.37 25.37 0 0 1-.17 2.88zm-5.13-5.76H5.67a24.48 24.48 0 0 0 0 5.76h4.66A23.86 23.86 0 0 0 10.5 8a23.86 23.86 0 0 0-.17-2.88zM4.25 8a25.37 25.37 0 0 1 .17-2.88H.54a8 8 0 0 0 0 5.76h3.88A25.37 25.37 0 0 1 4.25 8zm7.15 4.12a11.23 11.23 0 0 1-1.15 3.55 8 8 0 0 0 4.6-3.55zm0-8.24h3.45a8 8 0 0 0-4.6-3.55 11.23 11.23 0 0 1 1.15 3.55zm-6.8 8.24H1.15a8 8 0 0 0 4.6 3.55 11.23 11.23 0 0 1-1.15-3.55zm0-8.24A11.23 11.23 0 0 1 5.75.33a8 8 0 0 0-4.6 3.55z"/>
</g></svg>